# xmcd CD database file
#
# Track frame offsets:
#	150
#	21942
#	45331
#	71529
#	92096
#	120499
#	143046
#	177011
#	200670
#	225800
#
# Disc length: 3277 seconds
#
# Revision: 0
# Processed by: cddbd v1.5.1PL2 Copyright (c) Steve Scherf et al.
# Submitted via: CDex 1.51
#
DISCID=770ccb0a
DTITLE=Jerome de Carli - Who Cares
DYEAR=2005
DGENRE=Jazz
TTITLE0=Bish Bash Bosh
TTITLE1=Gisbe
TTITLE2=East of the Sun
TTITLE3=Who Cares
TTITLE4=A Song for Elin
TTITLE5=Inspiration
TTITLE6=Speak Softly Love
TTITLE7=Gummiball
TTITLE8=If I Were Bell
TTITLE9=I've got a Crush on You
EXTD=YEAR: 2005
EXTT0=
EXTT1=
EXTT2=
EXTT3=
EXTT4=
EXTT5=
EXTT6=
EXTT7=
EXTT8=
EXTT9=
PLAYORDER=
